<svg viewBox="0 0 86 24" fit="" height="100%" width="100%" preserveAspectRatio="xMidYMid meet" focusable="false"><path fill-rule="evenodd" clip-rule="evenodd" d="M82 18C82 16.9067 82.9067 16 84 16C85.0933 16 86 16.9067 86 18C86 19.0933 85.0933 20 84 20C82.9067 20 82 19.0933 82 18Z" fill="#86BC25"></path><path fill-rule="evenodd" clip-rule="evenodd" d="M12.8454 11.5765C12.8454 14.2029 12.1584 16.1953 10.7543 17.6142C9.35029 19.0331 7.40854 19.7274 4.86932 19.7274H0V4.0293H5.25767C7.6774 4.0293 9.5594 4.66326 10.9037 5.96137C12.1882 7.28967 12.8454 9.13118 12.8454 11.5765ZM8.6035 11.7274C8.6035 10.2784 8.33464 9.22175 7.76705 8.52741C7.22933 7.83307 6.39288 7.501 5.2577 7.501H4.06278V16.2859H4.98885C6.24352 16.2859 7.13971 15.9236 7.73717 15.1689C8.30476 14.384 8.6035 13.267 8.6035 11.7274Z" fill="#1C1C1C"></path><path fill-rule="evenodd" clip-rule="evenodd" d="M26.4377 4H30.3511V19.7585H26.4377V4Z" fill="#1C1C1C"></path><path fill-rule="evenodd" clip-rule="evenodd" d="M43.1368 13.8708C43.1368 15.7727 42.6289 17.2821 41.6431 18.3387C40.6573 19.3953 39.2533 19.9387 37.4609 19.9387C35.7581 19.9387 34.3839 19.3953 33.3683 18.3086C32.3526 17.2218 31.8447 15.7425 31.8447 13.8708C31.8447 11.9689 32.3526 10.4897 33.3384 9.43309C34.3242 8.37649 35.7282 7.86328 37.5206 7.86328C38.6259 7.86328 39.6117 8.10479 40.4781 8.58781C41.3444 9.07083 41.9717 9.76517 42.4497 10.701C42.8978 11.5765 43.1368 12.6331 43.1368 13.8708ZM35.8179 13.8708C35.8179 14.867 35.9374 15.6519 36.2062 16.1651C36.4751 16.6783 36.8933 16.95 37.5206 16.95C38.1181 16.95 38.5662 16.6783 38.8052 16.1651C39.0442 15.6519 39.1935 14.867 39.1935 13.8708C39.1935 12.8746 39.074 12.1199 38.8052 11.6066C38.5662 11.0934 38.1181 10.8519 37.5206 10.8519C36.9232 10.8519 36.505 11.0934 36.2361 11.6066C35.9374 12.1199 35.8179 12.8746 35.8179 13.8708Z" fill="#1C1C1C"></path><path fill-rule="evenodd" clip-rule="evenodd" d="M44.6901 8.04492H48.6035V19.7581H44.6901V8.04492Z" fill="#1C1C1C"></path><path fill-rule="evenodd" clip-rule="evenodd" d="M44.6901 4H48.6035V6.62641H44.6901V4Z" fill="#1C1C1C"></path><path fill-rule="evenodd" clip-rule="evenodd" d="M56.4901 16.7689C57.0278 16.7689 57.6551 16.6481 58.3721 16.3764V19.3349C57.8343 19.5764 57.3564 19.7273 56.8784 19.8481C56.4004 19.9387 55.8328 19.999 55.2055 19.999C53.8911 19.999 52.965 19.667 52.3676 19.0028C51.8 18.3387 51.5012 17.3123 51.5012 15.9538V11.0632H50.1271V8.04434H51.5012V5.05567L55.4445 4.36133V8.04434H57.924V11.0632H55.4445V15.6217C55.4445 16.3764 55.7731 16.7689 56.4901 16.7689Z" fill="#1C1C1C"></path><path fill-rule="evenodd" clip-rule="evenodd" d="M65.5117 16.7699C66.0494 16.7699 66.6768 16.6492 67.3937 16.3775V19.336C66.856 19.5775 66.378 19.7284 65.9001 19.8492C65.4221 19.9397 64.8545 20.0001 64.2272 20.0001C62.9128 20.0001 61.9867 19.668 61.3892 19.0039C60.8216 18.3397 60.5229 17.3133 60.5229 15.9548V11.0643H59.1487V8.0454H60.5229V5.02654L64.4662 4.39258V8.0454H66.9456V11.0643H64.4662V15.6228C64.4662 16.3775 64.8246 16.7699 65.5117 16.7699Z" fill="#1C1C1C"></path><path fill-rule="evenodd" clip-rule="evenodd" d="M77.8195 9.22266C76.8934 8.317 75.579 7.83398 73.8762 7.83398C72.0838 7.83398 70.7097 8.34719 69.7537 9.40379C68.7978 10.4604 68.3198 11.9698 68.3198 13.9623C68.3198 15.8642 68.8277 17.3434 69.8732 18.4C70.9188 19.4264 72.3826 19.9396 74.2646 19.9396C75.1608 19.9396 75.9375 19.8793 76.5947 19.7585C77.2519 19.6377 77.8792 19.4264 78.4767 19.0943L77.8792 16.4679C77.4311 16.6491 77.0129 16.8 76.6246 16.8906C76.057 17.0113 75.4296 17.1019 74.7425 17.1019C73.9957 17.1019 73.3983 16.9208 72.9502 16.5585C72.5021 16.1962 72.293 15.683 72.2631 15.0189H79.2235V13.1774C79.2235 11.4566 78.7455 10.1283 77.8195 9.22266ZM72.3228 12.4529C72.3826 11.8189 72.5618 11.3359 72.8605 11.034C73.1593 10.7321 73.5476 10.5812 74.0256 10.5812C74.5334 10.5812 74.9218 10.7623 75.2205 11.0944C75.5192 11.4264 75.6686 11.8793 75.6985 12.4529H72.3228Z" fill="#1C1C1C"></path><path fill-rule="evenodd" clip-rule="evenodd" d="M23.54 9.22266C22.6139 8.317 21.2995 7.83398 19.5967 7.83398C17.8044 7.83398 16.4302 8.34719 15.4743 9.40379C14.5183 10.4604 14.0403 11.9698 14.0403 13.9623C14.0403 15.8642 14.5482 17.3434 15.5937 18.4C16.6393 19.4264 18.1031 19.9396 19.9851 19.9396C20.8813 19.9396 21.658 19.8793 22.3152 19.7585C22.9724 19.6377 23.5997 19.4264 24.1972 19.0943L23.5997 16.4679C23.1517 16.6491 22.7334 16.8 22.3451 16.8906C21.7775 17.0113 21.1502 17.1019 20.4631 17.1019C19.7162 17.1019 19.1188 16.9208 18.6707 16.5585C18.2226 16.1962 18.0135 15.683 17.9836 15.0189H24.944V13.1774C24.9142 11.4566 24.4661 10.1283 23.54 9.22266ZM18.0135 12.4529C18.0732 11.8189 18.2524 11.3359 18.5512 11.034C18.8499 10.7321 19.2383 10.5812 19.7162 10.5812C20.2241 10.5812 20.6124 10.7623 20.9112 11.0944C21.2099 11.4264 21.3593 11.8793 21.3891 12.4529H18.0135Z" fill="#1C1C1C"></path></svg>